<svg width="18" height="18" viewBox="0 0 18 18" fill="none" xmlns="http://www.w3.org/2000/svg">
<path d="M15.5348 6.09583L15.3503 6.52033C15.3214 6.58946 15.2728 6.64851 15.2105 6.69004C15.1481 6.73157 15.0749 6.75373 15 6.75373C14.9251 6.75373 14.8519 6.73157 14.7896 6.69004C14.7272 6.64851 14.6786 6.58946 14.6498 6.52033L14.4653 6.09583C14.1409 5.34488 13.5468 4.74277 12.8003 4.40833L12.231 4.15408C12.1619 4.12232 12.1034 4.07141 12.0624 4.00741C12.0214 3.9434 11.9996 3.86898 11.9996 3.79296C11.9996 3.71694 12.0214 3.64252 12.0624 3.57851C12.1034 3.51451 12.1619 3.4636 12.231 3.43183L12.7688 3.19258C13.5341 2.84862 14.1383 2.22425 14.457 1.44808L14.6468 0.989834C14.6746 0.91885 14.7232 0.857908 14.7862 0.814953C14.8493 0.771998 14.9237 0.749023 15 0.749023C15.0763 0.749023 15.1508 0.771998 15.2138 0.814953C15.2768 0.857908 15.3254 0.91885 15.3533 0.989834L15.543 1.44733C15.8614 2.22364 16.4653 2.84828 17.2305 3.19258L17.769 3.43258C17.8379 3.46444 17.8962 3.51534 17.937 3.57926C17.9779 3.64319 17.9996 3.71747 17.9996 3.79333C17.9996 3.8692 17.9779 3.94348 17.937 4.0074C17.8962 4.07133 17.8379 4.12222 17.769 4.15408L17.199 4.40758C16.4526 4.74236 15.8588 5.34473 15.5348 6.09583ZM15 8.24983C15.5025 8.24983 15.9848 8.16733 16.4363 8.01583C16.4788 8.33833 16.5 8.66633 16.5 8.99983C16.5 13.1421 13.1423 16.4998 9.00001 16.4998C7.76804 16.5016 6.55477 16.1986 5.46826 15.6178L1.50001 16.4998L2.38201 12.5316C1.80127 11.4451 1.49828 10.2318 1.50001 8.99983C1.50001 4.85758 4.85776 1.49983 9.00001 1.49983C9.67951 1.49983 10.3373 1.58983 10.9628 1.75933C10.6243 2.44551 10.4664 3.20665 10.504 3.97083C10.5416 4.735 10.7734 5.47698 11.1775 6.12665C11.5816 6.77632 12.1447 7.31222 12.8135 7.68373C13.4824 8.05524 14.2349 8.25008 15 8.24983ZM5.25001 8.99983C5.25001 9.9944 5.6451 10.9482 6.34836 11.6515C7.05162 12.3547 8.00545 12.7498 9.00001 12.7498C9.99457 12.7498 10.9484 12.3547 11.6517 11.6515C12.3549 10.9482 12.75 9.9944 12.75 8.99983H11.25C11.25 9.59657 11.013 10.1689 10.591 10.5908C10.169 11.0128 9.59674 11.2498 9.00001 11.2498C8.40327 11.2498 7.83097 11.0128 7.40902 10.5908C6.98706 10.1689 6.75001 9.59657 6.75001 8.99983H5.25001Z" fill="url(#paint0_linear_988_7488)"/>
<defs>
<linearGradient id="paint0_linear_988_7488" x1="9.74979" y1="0.749023" x2="9.74979" y2="16.4998" gradientUnits="userSpaceOnUse">
<stop offset="0.230769" stop-color="#FF7171"/>
<stop offset="1" stop-color="#5788F9"/>
</linearGradient>
</defs>
</svg>
