<svg width="16" height="16" viewBox="0 0 16 16" fill="none" xmlns="http://www.w3.org/2000/svg">
<path d="M12.2188 15.0002C11.6088 15.0002 10.7519 14.7796 9.46876 14.0627C7.90845 13.1877 6.70158 12.3799 5.1497 10.8321C3.65345 9.33676 2.92533 8.36864 1.90626 6.51426C0.755014 4.42051 0.951263 3.32301 1.17064 2.85395C1.43189 2.29332 1.81751 1.95801 2.31595 1.6252C2.59906 1.43971 2.89866 1.2807 3.21095 1.1502C3.2422 1.13676 3.27126 1.12395 3.2972 1.11239C3.45189 1.0427 3.68626 0.937386 3.98314 1.04989C4.18126 1.12426 4.35814 1.27645 4.63501 1.54989C5.20283 2.10989 5.97876 3.35707 6.26501 3.96957C6.4572 4.38239 6.58439 4.65489 6.5847 4.96051C6.5847 5.31832 6.4047 5.59426 6.18626 5.89207C6.14533 5.94801 6.1047 6.00145 6.06533 6.05332C5.82751 6.36582 5.77533 6.45614 5.8097 6.61739C5.87939 6.94145 6.39908 7.90614 7.25314 8.75832C8.1072 9.61051 9.04408 10.0974 9.36939 10.1668C9.53751 10.2027 9.6297 10.1483 9.9522 9.90207C9.99845 9.86676 10.046 9.8302 10.0956 9.79364C10.4288 9.54582 10.6919 9.37051 11.0413 9.37051H11.0431C11.3472 9.37051 11.6075 9.50239 12.0388 9.71989C12.6013 10.0036 13.886 10.7696 14.4494 11.338C14.7235 11.6143 14.8763 11.7905 14.951 11.9883C15.0635 12.2861 14.9575 12.5196 14.8885 12.6758C14.8769 12.7018 14.8641 12.7302 14.8506 12.7618C14.7191 13.0735 14.5592 13.3725 14.3728 13.6549C14.0406 14.1518 13.7041 14.5364 13.1422 14.798C12.8537 14.9345 12.5379 15.0036 12.2188 15.0002Z" fill="#ABABAB"/>
</svg>
