<svg width="16" height="16" viewBox="0 0 16 16" fill="none" xmlns="http://www.w3.org/2000/svg">
<path d="M7.98727 1.50049C9.43036 1.49706 10.8178 2.0599 11.8506 3.06787L11.8925 3.10889C14.0366 5.24088 14.0311 8.63741 11.8994 10.7339L8.11911 14.4517L8.11813 14.4526C8.08706 14.483 8.04539 14.5004 8.00192 14.5005C7.95825 14.5005 7.91589 14.4832 7.88474 14.4526V14.4517L4.10349 10.7339L4.10251 10.7319C3.59529 10.2359 3.19214 9.64363 2.91696 8.98975C2.64172 8.33569 2.49997 7.63295 2.49997 6.92334C2.50001 6.21396 2.64185 5.51178 2.91696 4.85791C3.19219 4.20391 3.59517 3.6108 4.10251 3.11475L4.13083 3.0874L4.13181 3.08643C5.15968 2.0736 6.54425 1.50396 7.98727 1.50049ZM7.99997 3.8335C7.67168 3.8335 7.34624 3.89829 7.04294 4.02393C6.7398 4.14956 6.46443 4.33388 6.23239 4.56592C6.00034 4.79801 5.81601 5.07325 5.6904 5.37646C5.56476 5.67978 5.49997 6.00519 5.49997 6.3335C5.5 6.6616 5.56488 6.9864 5.6904 7.28955C5.81604 7.59286 6.00024 7.86893 6.23239 8.10107C6.46445 8.33311 6.73977 8.51745 7.04294 8.64307C7.34624 8.7687 7.67168 8.83349 7.99997 8.8335C8.66295 8.8335 9.29872 8.56983 9.76755 8.10107C10.2363 7.63229 10.4999 6.99646 10.5 6.3335C10.5 5.6705 10.2363 5.03475 9.76755 4.56592C9.29871 4.09708 8.66301 3.8335 7.99997 3.8335Z" fill="#ABABAB" stroke="#ABABAB"/>
</svg>
