<svg width="16" height="16" viewBox="0 0 16 16" fill="none" xmlns="http://www.w3.org/2000/svg">
<path d="M3.66668 4.66683C3.40146 4.66683 3.14711 4.56147 2.95957 4.37394C2.77203 4.1864 2.66668 3.93205 2.66668 3.66683C2.66668 3.40161 2.77203 3.14726 2.95957 2.95972C3.14711 2.77219 3.40146 2.66683 3.66668 2.66683C3.93189 2.66683 4.18625 2.77219 4.37378 2.95972C4.56132 3.14726 4.66668 3.40161 4.66668 3.66683C4.66668 3.93205 4.56132 4.1864 4.37378 4.37394C4.18625 4.56147 3.93189 4.66683 3.66668 4.66683ZM14.2733 7.72016L8.27334 1.72016C8.03334 1.48016 7.70001 1.3335 7.33334 1.3335H2.66668C1.92668 1.3335 1.33334 1.92683 1.33334 2.66683V7.3335C1.33334 7.70016 1.48001 8.0335 1.72668 8.2735L7.72001 14.2735C7.96668 14.5135 8.30001 14.6668 8.66668 14.6668C9.03334 14.6668 9.36668 14.5135 9.60668 14.2735L14.2733 9.60683C14.52 9.36683 14.6667 9.0335 14.6667 8.66683C14.6667 8.2935 14.5133 7.96016 14.2733 7.72016Z" fill="#ABABAB"/>
</svg>
