<svg width="16" height="16" viewBox="0 0 16 16" fill="none" xmlns="http://www.w3.org/2000/svg">
<g clip-path="url(#clip0_988_7339)">
<path fill-rule="evenodd" clip-rule="evenodd" d="M5.7703 0.315201C4.22402 0.765629 2.84941 1.67164 1.82578 2.91504C0.802152 4.15844 0.177046 5.68149 0.0320129 7.28549H3.68916C3.90234 4.84463 4.61003 2.47269 5.76916 0.314058M3.68916 8.71406H0.0320129C0.176744 10.3181 0.801583 11.8413 1.82501 13.0849C2.84843 14.3285 4.22293 15.2348 5.76916 15.6855C4.61003 13.5269 3.90234 11.1549 3.68916 8.71406ZM7.6023 15.9906C6.21668 13.793 5.36715 11.3004 5.1223 8.71406H10.8766C10.6317 11.3004 9.78221 13.793 8.39658 15.9906C8.13199 16.0038 7.8669 16.0038 7.6023 15.9906ZM10.2309 15.6843C11.7769 15.2337 13.1513 14.3276 14.1747 13.0842C15.1981 11.8409 15.8231 10.3179 15.968 8.71406H12.3109C12.0977 11.1549 11.39 13.5269 10.2309 15.6855M12.3109 7.28663H15.968C15.8233 5.68257 15.1984 4.15937 14.175 2.91577C13.1516 1.67216 11.7771 0.765896 10.2309 0.315201C11.39 2.47383 12.0977 4.84577 12.3109 7.28663ZM7.6023 0.00891559C7.86728 -0.00427395 8.13275 -0.00427395 8.39773 0.00891559C9.78295 2.20661 10.6321 4.69919 10.8766 7.28549H5.12344C5.37144 4.6832 6.22287 2.18834 7.6023 0.00891559Z" fill="#ABABAB"/>
</g>
<defs>
<clipPath id="clip0_988_7339">
<rect width="16" height="16" fill="white"/>
</clipPath>
</defs>
</svg>
