<svg width="24" height="24" viewBox="0 0 24 24" fill="none" xmlns="http://www.w3.org/2000/svg">
<path d="M23.9616 17.652C23.8585 16.0059 23.1013 14.5234 21.889 13.5848C21.6934 13.4355 21.4695 13.3999 21.3059 13.4959C21.1531 13.5848 21.082 13.7661 21.114 13.9972C21.1353 14.1572 21.409 14.4167 21.6081 14.6052C21.7361 14.726 21.857 14.8398 21.9565 14.9607C23.2257 16.4752 23.4604 18.5301 22.568 20.3184C21.665 22.128 19.8661 23.1945 17.8752 23.0879C15.8594 22.9883 14.64 21.7227 13.4632 20.4997C13.2997 20.3326 13.1362 20.1619 12.9691 19.9949L12.6562 19.682L22.4365 9.87318C24.7651 7.25655 24.1287 4.25595 22.8738 2.48902C21.6295 0.739855 19.0377 -0.831546 15.8345 0.494546C14.7929 0.924726 14.057 1.66421 13.2748 2.44635C12.9584 2.76277 12.6349 3.08985 12.2794 3.39915L11.9701 3.6729L11.675 3.38137C11.4759 3.18584 11.2839 2.9903 11.0955 2.79832C10.0112 1.69976 8.9873 0.66164 7.44791 0.249237C5.36103 -0.312486 3.21371 0.256347 1.70632 1.77442C0.2096 3.28538 -0.34145 5.42562 0.234486 7.4983C0.529564 8.56131 1.3437 9.8163 2.12583 10.4207C2.47779 10.6909 2.70532 10.5238 2.78709 10.4385C2.93285 10.2856 2.98263 10.0225 2.77287 9.77719C2.62711 9.60654 2.48846 9.46433 2.35692 9.32923C1.97652 8.93461 1.61744 8.56487 1.31881 7.85738C0.568671 6.08333 0.87797 4.08886 2.12583 2.65256C3.08928 1.53978 4.46157 0.931836 5.8943 0.931836C6.32803 0.931836 6.76532 0.98872 7.2026 1.10249C8.51801 1.44734 9.38547 2.35036 10.2209 3.22494C10.484 3.4987 10.7578 3.78311 11.0351 4.04264L11.3764 4.3555L1.52501 14.1856C-0.718298 16.7205 -0.138806 19.6642 1.04862 21.4098C2.22893 23.1448 4.73532 24.7624 7.91364 23.6069C9.12239 23.1697 9.94719 22.3484 10.8253 21.4809C11.1133 21.1965 11.4084 20.9014 11.7248 20.6135L12.0234 20.3433L12.322 20.6135C12.6456 20.905 12.9513 21.225 13.2499 21.5307C13.8579 22.16 14.4338 22.7501 15.1342 23.1661C17.4344 24.5277 20.3745 24.158 22.28 22.2631C23.439 21.1076 24.0683 19.3869 23.9581 17.652H23.9616ZM8.81309 22.1244L8.7491 22.1778C7.79632 22.8177 6.8222 23.0879 5.90142 23.0879C4.51846 23.0879 3.25993 22.4799 2.38891 21.616C0.952629 20.1868 0.2096 17.6733 1.79876 15.2878L1.84853 15.2273C6.71555 10.1718 11.1133 5.78469 15.2942 1.81708L15.3546 1.76731C16.0763 1.29091 16.9011 1.00294 17.7401 0.935391C19.3079 0.810959 20.8082 1.4189 21.8463 2.59923C22.8986 3.79378 23.311 5.3794 22.9769 6.94014C22.6889 8.29467 21.9708 9.04837 21.2064 9.85185C18.5542 12.6391 15.7421 15.3695 13.0224 18.0075C11.6359 19.3549 10.2032 20.745 8.81309 22.1244Z" fill="white"/>
<path d="M9.64488 9.91224C9.62 9.98335 9.57023 10.1576 9.68755 10.314L13.6907 14.31C13.9217 14.4629 14.1386 14.3847 14.2666 14.2567C14.327 14.1963 14.5083 13.9758 14.3164 13.6843L10.3275 9.69893C10.2102 9.62072 10.1035 9.59583 9.98618 9.61716C9.80842 9.6456 9.69466 9.78781 9.64844 9.91224H9.64488Z" fill="white"/>
<path d="M12.4856 7.06091C12.4251 7.21023 12.4287 7.37732 12.4962 7.48753L16.4887 11.4729C16.7944 11.6791 17.0113 11.5191 17.0717 11.4623C17.1997 11.3449 17.2815 11.1352 17.1499 10.8792L13.1255 6.86182C13.0402 6.81204 12.8944 6.79782 12.738 6.82626C12.5922 6.85115 12.5176 7.00047 12.4891 7.06091H12.4856Z" fill="white"/>
<path d="M7.09953 12.4542C6.94311 12.4791 6.86845 12.632 6.84356 12.696C6.78668 12.8418 6.79023 13.0053 6.85778 13.1155L10.8822 17.1365C11.1346 17.268 11.3515 17.1756 11.4688 17.0476C11.5222 16.9871 11.6821 16.7703 11.4795 16.4823L7.52615 12.5325C7.47283 12.4827 7.36261 12.4116 7.09598 12.4542H7.09953Z" fill="white"/>
</svg>
