<svg width="24" height="19" viewBox="0 0 24 19" fill="none" xmlns="http://www.w3.org/2000/svg">
<path d="M23.9006 12.6446C23.4995 11.2272 23.0291 9.81363 22.5727 8.44266C22.1542 7.18401 21.722 5.88663 21.3416 4.5815C21.2759 4.34913 21.2275 4.15937 21.186 3.99284C21.0511 3.4429 20.9819 3.16794 20.4667 2.59476C18.7618 0.685482 15.1826 0 11.9977 0C10.6214 0 9.32111 0.127802 8.2733 0.340805C7.14595 0.569299 3.42154 1.49877 2.77487 3.88053C2.40831 5.22438 1.96221 6.57986 1.52994 7.89273C1.04234 9.376 0.534 10.9058 0.157063 12.3968C-0.161085 13.6516 0.00144717 14.6585 0.668867 15.5686C2.33569 17.8342 7.21165 18.8217 10.8773 18.9805C14.5809 19.1393 21.2309 18.357 23.3058 15.5763C23.9317 14.7359 24.1496 13.667 23.8971 12.6524L23.9006 12.6446ZM4.47281 2.90459C7.69233 0.460861 14.5463 0.518953 18.295 2.19974C18.8898 2.46696 20.3007 3.20279 20.5151 4.26781C20.6085 4.72867 20.4701 5.1934 20.0967 5.64652C20.0967 5.64652 19.8131 5.98345 19.6817 5.98345H19.6367L19.571 5.90986V5.86726C19.4431 3.73723 17.3232 3.5707 16.4207 3.59781H16.3619L16.3307 3.54359C15.8017 2.618 14.868 1.97125 13.834 1.81246C12.9176 1.67304 12.0392 1.94801 11.4306 2.56378C11.3752 2.618 11.2611 2.77678 11.1608 2.91233C10.9914 3.1447 10.9464 3.20666 10.9049 3.2299C10.8081 3.28799 10.2998 3.38481 10.2064 3.37707C10.1303 3.37319 10.0473 3.29574 9.77413 3.02077C9.67038 2.9162 9.56318 2.80389 9.50785 2.76517C8.72286 2.18425 7.81683 2.33529 7.02146 3.18343C6.94192 3.26863 6.82434 3.45065 6.71714 3.61331C6.56844 3.8418 6.47507 3.98509 6.40245 4.03931C6.30562 4.11289 6.16038 4.15937 6.00476 4.20584C5.85952 4.25231 5.70736 4.29879 5.59325 4.3685C5.04686 4.71317 4.72871 5.39478 4.78404 6.11125L4.80133 6.32812L4.63189 6.22356C3.89876 5.76657 3.49762 5.20502 3.47341 4.60086C3.4492 4.00446 3.79502 3.41579 4.47627 2.90071L4.47281 2.90459ZM15.9469 5.56131C15.2795 5.11594 14.3354 5.023 13.4812 5.31733L13.381 5.35218L13.3533 5.23987C13.2599 4.88358 13.049 4.58537 12.8415 4.29491L12.7447 4.15937L11.8767 3.39256L11.9942 3.30348C13.0179 2.52893 14.5948 2.73418 15.4385 3.74885C15.5112 3.83793 15.5942 3.97735 15.6806 4.12839C15.7809 4.29879 15.9261 4.55439 16.0091 4.60474C16.1302 4.61636 16.2754 4.62023 16.431 4.6241C17.1849 4.65121 18.2154 4.68607 18.6339 5.34057C18.8413 5.66975 18.869 6.11899 18.7134 6.6728L18.6996 6.72702L17.0051 7.39701L16.9809 7.26534C16.846 6.49853 16.4967 5.92536 15.9469 5.55744V5.56131ZM16.2028 7.57516L16.1786 7.61776L16.1371 7.62938C15.5285 7.78042 14.823 7.94695 14.1279 8.02053C13.4363 8.09799 12.7412 8.13671 12.0496 8.13671C10.5487 8.13671 9.06867 7.95857 7.68542 7.60614C7.66813 7.60227 5.8699 7.13366 5.66932 6.86257C5.48604 6.61471 5.48259 5.92536 5.58633 5.66588C5.74886 5.25149 6.15346 5.17791 6.45086 5.12756C6.52694 5.11207 6.5961 5.10045 6.65835 5.08496C6.82088 5.03849 6.97996 4.77127 7.12866 4.51179C7.21857 4.35688 7.3154 4.19422 7.41568 4.07804C8.00356 3.38481 8.58799 3.26863 9.20354 3.72174C9.32457 3.81082 9.44906 3.96573 9.56664 4.11289C9.69459 4.27168 9.83983 4.4537 9.9332 4.48081C10.0404 4.51179 10.196 4.45757 10.3447 4.40723C10.4554 4.3685 10.5695 4.32977 10.6802 4.31428C11.4029 4.23682 12.1291 4.62797 12.5372 5.31346C12.6271 5.46449 12.6997 5.67362 12.7689 5.87501C12.8277 6.04928 12.8899 6.22743 12.9452 6.29714C13.1008 6.5024 13.4501 6.39784 13.7544 6.30489C13.8997 6.26229 14.038 6.21969 14.1556 6.20807C14.8472 6.14223 15.3694 6.2468 15.7048 6.51789C15.8328 6.62246 16.3861 7.24985 16.2028 7.57516ZM22.9946 14.5771C21.6805 16.8311 16.3757 17.6095 15.774 17.6909C14.8437 17.8148 13.5539 17.9077 12.1118 17.9077C8.45312 17.9077 3.81577 17.3307 1.60948 15.2859C0.917852 14.6469 0.565123 14.0466 0.821024 12.8809L2.98927 5.99894L4.05438 6.9865C7.66813 9.95692 16.6904 9.87947 20.1416 6.83933C20.3111 6.69217 20.4701 6.51015 20.6257 6.33587C20.7157 6.23518 20.8056 6.13449 20.8955 6.04154L21.0546 5.87501L21.0684 6.11899C21.0753 6.25841 21.1203 6.39396 21.1652 6.53725L21.1894 6.61471C21.4073 7.30794 21.6494 8.01666 21.9053 8.7641C22.3583 10.0886 22.8286 11.4596 23.1433 12.7221C23.3093 13.3921 23.3508 13.9614 22.9911 14.5771H22.9946Z" fill="white"/>
<path d="M11.8039 13.427C12.5371 13.3805 13.782 13.6594 14.0483 14.5578C14.356 15.5958 13.1526 16.1728 12.4299 16.2735C11.6449 16.3819 10.2651 16.1341 9.96767 15.162C9.62531 14.0428 11.0466 13.4696 11.8005 13.4231L11.8039 13.427Z" fill="white"/>
<path d="M12.8518 10.4914C13.5123 10.4411 13.789 11.4325 13.7302 12.0212C13.6714 12.6098 13.2772 13.4231 12.634 13.1133C11.7937 12.7105 11.8905 10.565 12.8518 10.4875V10.4914Z" fill="white"/>
<path d="M11.0397 10.4914C11.6933 10.4488 11.9527 11.3899 11.9181 11.9785C11.8835 12.5672 11.472 13.4153 10.8288 13.121C9.96771 12.726 10.0818 10.5534 11.0397 10.4914Z" fill="white"/>
<path d="M9.55962 12.1837C10.317 12.0985 10.5383 13.4772 9.90543 13.8839C9.46625 14.1666 9.04782 13.7677 8.96482 13.2758C8.88874 12.8227 9.10315 12.2341 9.55962 12.1837Z" fill="white"/>
<path d="M14.3422 12.1839C15.2863 12.0794 15.3036 14.0622 14.3491 13.9732C13.5537 13.8996 13.533 12.273 14.3422 12.1839Z" fill="white"/>
</svg>
