<svg width="24" height="24" viewBox="0 0 24 24" fill="none" xmlns="http://www.w3.org/2000/svg">
<path d="M0.605157 21.8374C1.38687 23.1937 2.46002 23.7908 4.31488 23.8936C6.41659 24.0122 8.64517 23.9687 10.7983 23.9292C11.8886 23.9094 13.0097 23.8857 14.1 23.8857C14.2337 23.8857 14.3675 23.8857 14.5012 23.8857C15.1457 23.8857 15.8075 23.9173 16.4486 23.941C17.5423 23.9845 18.6738 24.028 19.7675 23.9648C21.7355 23.8461 22.9663 22.996 23.6486 21.2957C24.06 20.2676 24.1115 19.2118 23.796 18.2391C23.4258 17.0963 22.548 16.0959 21.3926 15.4949L21.1869 15.3881L21.3275 15.1864C22.1195 14.0555 22.3286 12.3869 21.8555 11.0345C21.3 9.44494 19.4623 8.4129 18.0806 8.36545L17.8132 8.35754L17.9298 8.08074C18.6189 6.43975 17.8372 4.21749 16.8189 2.84934C15.4749 1.02645 13.6612 0.124891 11.1172 0.00626527C10.8532 -0.00559733 10.5823 0.00231107 10.3183 0.00626527C10.1983 0.00626527 10.0749 0.0102195 9.95488 0.0141737C10.0749 0.144662 10.212 0.279105 10.3526 0.417502C10.98 1.0304 11.6932 1.72239 11.3949 2.75839C11.0726 3.87743 9.46117 4.46265 8.16517 4.92925C7.74002 5.08346 7.33888 5.22581 7.07145 5.36421C6.06688 5.87825 5.29888 6.83122 5.07259 7.85931C4.89773 8.65015 5.05202 9.43703 5.52174 10.133C5.62459 10.2872 5.50802 10.4454 5.37774 10.5047C5.29545 10.5442 5.20631 10.5521 5.12059 10.564C4.74688 10.6035 4.38345 10.6589 4.02688 10.8012C3.6703 10.9436 3.35145 11.1255 3.0463 11.3588C2.9263 11.4497 2.81316 11.5486 2.70345 11.6514C1.4863 12.7981 1.26344 14.4668 2.14459 15.7993L2.26116 15.9773L2.09659 16.092C1.0063 16.8551 0.2863 17.8872 0.0702995 19.0062C-0.114844 19.9552 0.0668709 20.9082 0.601729 21.8414L0.605157 21.8374ZM1.10916 18.4882C1.40744 17.903 2.37087 16.7839 3.08402 16.8077C3.74573 16.8353 4.43488 16.9184 5.09659 16.9935C6.19031 17.12 7.31831 17.2545 8.41202 17.1675L12.6737 16.8274L12.564 15.9496L9.60517 16.2264H6.63945C6.38231 16.1829 6.06345 16.1631 5.69316 16.1434C4.57888 16.0761 3.19373 15.9931 2.70002 15.2181C2.18916 14.4154 2.30916 13.3359 2.99145 12.5846C4.13316 11.3311 6.01545 11.3865 7.67831 11.4339C8.18574 11.4497 8.66574 11.4616 9.09431 11.4339C9.54688 11.4062 10.0132 11.3232 10.4657 11.2441C10.5857 11.2243 10.7057 11.2006 10.8257 11.1808L10.6577 10.3109C10.6406 10.2753 10.3286 10.3663 10.2909 10.3742C10.0749 10.4177 9.8486 10.4295 9.62917 10.4493C9.18688 10.4928 8.7446 10.5165 8.30231 10.5284C8.0726 10.5323 7.84631 10.5086 7.61659 10.5086C7.21545 10.4612 6.82117 10.3386 6.48174 10.0737C6.35831 9.97481 6.24516 9.86409 6.14916 9.72965C5.96745 9.48053 5.86116 9.17606 5.82688 8.85577C5.62116 6.78377 7.47259 6.12737 8.9606 5.60146C9.37888 5.45515 9.77317 5.3128 10.0852 5.15859C10.932 4.72758 12.8246 3.49387 12.0977 1.29533L11.9983 0.990861L12.2795 1.02645C14.5526 1.29929 16.6852 3.25662 17.2337 5.57773C17.5012 6.71259 17.4532 8.15587 16.4349 8.47616C16.0372 8.6027 15.5743 8.66992 15.1252 8.73319C14.9297 8.76087 14.7343 8.78855 14.5492 8.82018L14.676 9.69801C14.9332 9.65056 15.1903 9.5952 15.4475 9.53984C16.932 9.22351 18.4646 8.89135 19.9389 9.88781C21.1526 10.7063 21.6155 12.1733 21.1423 13.7155C21.0635 13.9804 20.6349 14.8424 20.2269 14.9215C20.1275 14.9413 19.9423 14.9057 19.5446 14.8227C19.3423 14.7792 19.1332 14.7357 19.0338 14.7278C18.3755 14.6843 17.7035 14.7633 17.0555 14.8503L17.1378 15.7638C17.2646 15.7282 17.4155 15.6926 17.556 15.6807C18.5332 15.5898 20.964 15.5779 22.4246 17.3692C23.1378 18.247 23.364 19.4253 23.0383 20.5958C22.692 21.8532 21.7972 22.7943 20.7069 23.0513C18.5195 23.1383 16.332 23.1739 14.1549 23.1739C10.5069 23.1739 6.89317 23.079 3.35488 22.9881C2.31602 22.7627 1.40402 21.96 1.00287 20.9438C0.684015 20.1371 0.725157 19.2672 1.11259 18.4961L1.10916 18.4882Z" fill="white"/>
</svg>
