<svg width="24" height="24" viewBox="0 0 24 24" fill="none" xmlns="http://www.w3.org/2000/svg">
<path d="M21.0419 0C22.61 0.233143 23.8425 1.47086 24 3.06171V20.9006C23.8596 22.5257 22.5621 23.8354 20.9392 23.9966H3.13952C1.47218 23.8834 0.116405 22.5257 0 20.8594L0.00684736 3.024C0.136947 1.53257 1.45506 0.150857 2.96148 0H21.0385H21.0419ZM3.07447 0.771429C1.85906 0.912 0.910699 1.89257 0.763481 3.09943C0.801141 9.13029 0.684736 15.1783 0.821683 21.1989C1.07504 22.3131 2.03709 23.1463 3.1806 23.2389C9.18574 23.1977 15.208 23.3143 21.2029 23.1771C22.3155 22.9234 23.1475 21.96 23.2434 20.8183C23.2023 14.8149 23.3221 8.79086 23.1817 2.79771C22.9318 1.69371 21.9869 0.874286 20.8605 0.757714L3.07104 0.771429H3.07447Z" fill="white"/>
<path d="M12.4006 2.88009V3.74066C12.4006 4.06981 11.9521 4.26523 11.7227 4.01838C11.6816 3.97381 11.5994 3.78523 11.5994 3.74066V2.88009C9.2508 2.93838 6.92955 3.97038 5.29645 5.64009L5.28276 5.69152L8.07306 9.10295C8.28875 9.5178 7.78204 9.88466 7.45679 9.55895C6.70358 8.59895 5.88875 7.68695 5.11842 6.73723C4.95066 6.52809 4.50216 6.04809 4.40287 5.85266C4.3207 5.68809 4.33782 5.56123 4.43711 5.41723C4.71442 5.01609 5.58404 4.32009 6.00173 4.0218C9.58975 1.44695 14.3726 1.44009 17.9675 4.00466C18.3886 4.30638 19.2719 5.00923 19.5561 5.41723C19.6554 5.56123 19.6725 5.68809 19.5903 5.85266L16.5569 9.53838C16.1906 9.89152 15.7044 9.57266 15.9201 9.10295L18.7549 5.69838C17.1184 3.99438 14.7698 2.93838 12.3972 2.88009H12.4006Z" fill="white"/>
<path d="M12.2671 6.09261L13.599 8.90061C14.1399 9.17147 14.698 9.41833 15.1602 9.81947C15.3964 10.0252 15.8449 10.392 15.5368 10.7178C15.2012 11.0709 14.8281 10.512 14.5781 10.32C13.106 9.19547 11.0723 9.10633 9.56244 10.224C9.26116 10.4469 8.84347 11.0743 8.45659 10.7589C8.06972 10.4435 8.57985 10.0423 8.81608 9.83661C9.2817 9.42861 9.82264 9.1749 10.3739 8.91776L11.7125 6.10976C11.8803 5.96576 12.0823 5.96576 12.2603 6.09261H12.2671ZM12.0412 7.32004C11.9487 7.29947 11.9761 7.33376 11.9522 7.37147C11.7091 7.74861 11.5687 8.32804 11.3222 8.7189C11.7673 8.65719 12.2363 8.65719 12.6814 8.7189L12.0412 7.32004Z" fill="white"/>
</svg>
