<svg width="28" height="28" viewBox="0 0 28 28" fill="none" xmlns="http://www.w3.org/2000/svg">
<path d="M10.9777 11.3247H8.50711V13.6613H10.9777V11.3247Z" fill="#656565"/>
<path d="M15.2353 11.3247H12.7647V13.6613H15.2353V11.3247Z" fill="#656565"/>
<path d="M19.493 11.3247H17.0224V13.6613H19.493V11.3247Z" fill="#656565"/>
<path d="M23.7423 11.3247H21.2718V13.6613H23.7423V11.3247Z" fill="#656565"/>
<path d="M6.72821 16.1616H4.25763V18.4982H6.72821V16.1616Z" fill="#656565"/>
<path d="M10.9777 16.1616H8.50711V18.4982H10.9777V16.1616Z" fill="#656565"/>
<path d="M15.2353 16.1616H12.7647V18.4982H15.2353V16.1616Z" fill="#656565"/>
<path d="M19.4929 16.1616H17.0224V18.4982H19.4929V16.1616Z" fill="#656565"/>
<path d="M23.7424 16.1616H21.2718V18.4982H23.7424V16.1616Z" fill="#656565"/>
<path d="M6.72821 21.0059H4.25763V23.3424H6.72821V21.0059Z" fill="#656565"/>
<path d="M10.9777 21.0059H8.50711V23.3424H10.9777V21.0059Z" fill="#656565"/>
<path d="M15.2353 21.0059H12.7647V23.3424H15.2353V21.0059Z" fill="#656565"/>
<path d="M19.4929 21.0059H17.0224V23.3424H19.4929V21.0059Z" fill="#656565"/>
<path d="M23.4706 1.51878H22.9188V0H22.0953V1.51878H5.90471V0H5.08118V1.51878H4.52941C2.03412 1.51878 0 3.44256 0 5.8025V23.7163C0 26.0762 2.03412 28 4.52941 28H23.4706C25.9659 28 28 26.0762 28 23.7163V5.8025C28 3.44256 25.9659 1.51878 23.4706 1.51878ZM27.1765 23.7163C27.1765 25.6478 25.5129 27.2211 23.4706 27.2211H4.52941C2.48706 27.2211 0.823529 25.6478 0.823529 23.7163V7.43811H27.1765V23.7163ZM0.823529 6.65925V5.8025C0.823529 3.87093 2.48706 2.29764 4.52941 2.29764H23.4706C25.5129 2.29764 27.1765 3.87093 27.1765 5.8025V6.65925H0.823529Z" fill="#656565"/>
</svg>
